<?xml version="1.0" encoding="UTF-8"?>
<svg xmlns="http://www.w3.org/2000/svg" xmlns:xlink="http://www.w3.org/1999/xlink" width="375pt" height="374.999991pt" viewBox="0 0 375 374.999991" version="1.2">
<g id="surface1">
<path style=" stroke:none;fill-rule:nonzero;fill:rgb(61.569214%,22.349548%,29.40979%);fill-opacity:1;" d="M 218.75 98.875 L 233.964844 98.875 L 233.964844 50.183594 L 228.097656 50.183594 L 228.097656 38.882812 L 148.109375 38.882812 L 148.109375 50.179688 L 142.242188 50.179688 L 142.242188 98.871094 L 157.457031 98.871094 L 124.851562 164.078125 L 181.582031 320.582031 L 181.582031 334.269531 L 186.148438 334.269531 L 186.148438 203.710938 C 177.144531 202.589844 170.175781 194.910156 170.175781 185.601562 C 170.175781 176.292969 177.144531 168.613281 186.148438 167.488281 L 186.148438 98.875 L 190.058594 98.875 L 190.058594 167.488281 C 199.066406 168.613281 206.035156 176.292969 206.035156 185.601562 C 206.035156 194.910156 199.066406 202.585938 190.058594 203.710938 L 190.058594 334.273438 L 194.621094 334.273438 L 194.621094 320.582031 L 251.355469 164.078125 Z M 218.75 98.875 "/>
</g>
</svg>
